<svg xmlns="http://www.w3.org/2000/svg" width="33" height="28.5" viewBox="0 0 33 28.5">
  <g id="Icon_ionic-md-paper" data-name="Icon ionic-md-paper" transform="translate(-1.5 -3.75)">
    <path id="Path_282" data-name="Path 282" d="M32.625,4.5H13.5a1.159,1.159,0,0,0-1.125,1.16V7.875H5.2A2.962,2.962,0,0,0,2.25,10.828v14.59A6.1,6.1,0,0,0,8.3,31.5H27.963a5.8,5.8,0,0,0,5.787-5.766V5.625A1.128,1.128,0,0,0,32.625,4.5Zm-20.25,5.625v13.5H9.422V11.475a3.433,3.433,0,0,0-.232-1.35Zm-1.2,17.958A4.152,4.152,0,0,1,8.332,29.25,3.841,3.841,0,0,1,4.5,25.418V11.475a1.336,1.336,0,1,1,2.672,0V24.75A1.128,1.128,0,0,0,8.3,25.875H12.34A3.7,3.7,0,0,1,11.18,28.083ZM31.5,25.734a3.553,3.553,0,0,1-3.537,3.516H13.17a5.878,5.878,0,0,0,1.455-3.832V6.82H31.5Z" stroke="#fff" stroke-width="1.5"></path>
    <path id="Path_283" data-name="Path 283" d="M17.438,9.563h11.25V13.5H17.438Z" stroke="#fff" stroke-width="2"></path>
    <path id="Path_284" data-name="Path 284" d="M17.438,15.75h11.25V18H17.438Z" stroke="#fff" stroke-width="1"></path>
    <path id="Path_285" data-name="Path 285" d="M17.438,20.25h11.25V22.5H17.438Z" stroke="#fff" stroke-width="1"></path>
    <path id="Path_286" data-name="Path 286" d="M28.688,24.75H17.438s0,2.25-.562,2.25H27.33C28.688,27,28.688,25.523,28.688,24.75Z" stroke="#fff" stroke-width="1"></path>
  </g>
</svg>